# xmcd CD database file
#
# Track frame offsets:
#	150
#	28712
#	55337
#	85112
#	98462
#	116912
#	137125
#	165362
#	234637
#	259712
#	285812
#
# Disc length: 4063 seconds
#
# Revision: 0
# Processed by: cddbd v1.5.2PL0 Copyright (c) Steve Scherf et al.
# Submitted via: CDex 1.51
#
DISCID=870fdd0b
DTITLE=Christy Doran's Phoenix - Christy Doran's Phoenix
DYEAR=1989
DGENRE=Jazz
TTITLE0=Beyond Words
TTITLE1=Phoenix
TTITLE2=Seven Shadows
TTITLE3=Celtic Ballad
TTITLE4=Lou Yuri
TTITLE5=The Warm Up
TTITLE6=Flying Carpet
TTITLE7=Spirale
TTITLE8=Cissé
TTITLE9=Rods and Cones
TTITLE10=Song for Sonny
EXTD=YEAR: 1989
EXTT0=
EXTT1=
EXTT2=
EXTT3=
EXTT4=
EXTT5=
EXTT6=
EXTT7=
EXTT8=
EXTT9=
EXTT10=
PLAYORDER=
